<svg data-logo="logo" xmlns="http://www.w3.org/2000/svg" viewBox="0 0 222.02000427246094 42.5537109375">
        <g style="opacity: 1;" id="logogram" transform="translate(0, 1.27685546875)
    rotate(0 20 20)"><path fill="#2C4C" d="M20 0C17.3922 1.99605e-07 15.1183 1.45568 13.5342 3.63379C13.4379 3.76624 13.3435 3.90193 13.252 4.04004C13.156 4.02057 13.0605 4.00028 12.9648 3.9834C10.312 3.51529 7.67909 4.03688 5.85742 5.8584C4.03613 7.68009 3.5143 10.3131 3.98242 12.9658C3.99931 13.0615 4.02057 13.157 4.04004 13.2529C3.90199 13.3444 3.76618 13.4379 3.63379 13.5342C1.45574 15.1183 0.000113546 17.3923 0 20C0.000113558 22.6077 1.45574 24.8817 3.63379 26.4658C3.76614 26.5621 3.90204 26.6556 4.04004 26.7471C4.0205 26.8433 3.99936 26.9392 3.98242 27.0352C3.51446 29.6879 4.03684 32.321 5.8584 34.1426C7.67994 35.9637 10.3124 36.4855 12.9648 36.0176C13.0606 36.0007 13.1559 35.9794 13.252 35.96C13.3436 36.0981 13.4378 36.2337 13.5342 36.3662C15.1183 38.5443 17.3922 40 20 40C22.6078 40 24.8817 38.5443 26.4658 36.3662C26.5623 36.2335 26.6573 36.0983 26.749 35.96C26.8447 35.9794 26.9398 36.0007 27.0352 36.0176C29.6878 36.4855 32.32 35.963 34.1416 34.1416C35.9629 32.3201 36.4845 29.6877 36.0166 27.0352C35.9997 26.9396 35.9794 26.8439 35.96 26.748C36.0981 26.6565 36.2337 26.5622 36.3662 26.4658C38.5443 24.8817 39.9999 22.6077 40 20C39.9999 17.3923 38.5443 15.1183 36.3662 13.5342C36.2335 13.4376 36.0974 13.3437 35.959 13.252C35.9784 13.1561 35.9987 13.0604 36.0156 12.9648C36.4837 10.3121 35.963 7.67909 34.1416 5.85742C32.3199 4.03599 29.687 3.51526 27.0342 3.9834C26.9391 4.00018 26.8444 4.02071 26.749 4.04004C26.6574 3.90177 26.5622 3.76638 26.4658 3.63379C24.8817 1.45568 22.6078 3.54835e-07 20 0ZM20 32.4355C21.4648 33.7432 23.081 34.7301 24.7168 35.3613C23.4224 37.0556 21.7516 38 20 38C18.2484 38 16.5776 37.0556 15.2832 35.3613C16.919 34.7301 18.5353 33.7432 20 32.4355ZM34.1055 27.7578C34.3801 29.8067 33.8904 31.5645 32.7275 32.7275C31.5646 33.8903 29.8075 34.379 27.7588 34.1045C28.4359 32.5708 28.8593 30.8239 28.9697 28.9688C30.825 28.8582 32.5717 28.4351 34.1055 27.7578ZM5.89551 27.7578C7.42931 28.435 9.1759 28.8583 11.0312 28.9688C11.1417 30.824 11.565 32.5707 12.2422 34.1045C10.1933 34.3792 8.43562 33.8912 7.27246 32.7285C6.10929 31.5653 5.62069 29.8071 5.89551 27.7578ZM26.4824 24.2451C26.7263 25.0959 26.8923 26.0072 26.9619 26.9619C26.3643 26.9183 25.7839 26.8363 25.2246 26.7217C24.9825 27.347 24.6924 27.9675 24.3574 28.5771C25.1934 28.7751 26.0669 28.9076 26.9668 28.9648C26.85 30.6906 26.4234 32.2773 25.7773 33.6221C24.3016 33.1061 22.796 32.2332 21.4141 31.0176C22.0976 30.246 22.6913 29.4321 23.1924 28.5967C23.6048 27.9091 23.9555 27.2068 24.2383 26.5H24.3105C24.2891 26.494 24.2675 26.4885 24.2461 26.4824C24.4704 25.9187 24.6506 25.3516 24.7891 24.7881C25.3524 24.6496 25.9189 24.4695 26.4824 24.2451ZM25.7773 6.37695C26.4236 7.72183 26.8499 9.30905 26.9668 11.0352C25.7353 11.1134 24.553 11.3307 23.4492 11.668C22.7006 11.8967 21.9887 12.1812 21.3223 12.5146C20.8835 12.7345 20.4647 12.9754 20.0684 13.2363C20.2212 16.8693 23.1315 19.7793 26.7646 19.9316C27.0574 19.4873 27.3259 19.015 27.5664 18.5176C28.2604 18.9337 28.9431 19.4287 29.5986 20C29.211 20.3378 28.8117 20.6461 28.4082 20.9297C28.7056 21.5303 28.9656 22.163 29.1836 22.8223C29.8133 22.4057 30.4279 21.9357 31.0176 21.4131C32.2334 22.7949 33.1068 24.3008 33.623 25.7764C32.2783 26.4227 30.6918 26.8489 28.9658 26.9658C28.8995 25.9239 28.733 24.9168 28.4795 23.9629C28.2325 23.0343 27.9015 22.1563 27.498 21.3457C27.2752 20.8982 27.0304 20.4709 26.7646 20.0674C23.1318 20.2197 20.2217 23.1301 20.0684 26.7627C20.5128 27.0555 20.9848 27.3248 21.4824 27.5654C21.0662 28.2597 20.5715 28.9429 20 29.5986C19.662 29.2108 19.354 28.8109 19.0703 28.4072C18.4696 28.7047 17.8371 28.9645 17.1777 29.1826C17.5945 29.8125 18.0641 30.4276 18.5869 31.0176C17.2051 32.2333 15.6991 33.1057 14.2236 33.6221C13.5775 32.2773 13.151 30.6908 13.0342 28.9648C14.2795 28.8856 15.4745 28.6642 16.5889 28.3203C17.3076 28.0986 17.9921 27.8254 18.6348 27.5068C19.0896 27.2812 19.5231 27.0324 19.9326 26.7627C19.7793 23.1308 16.8692 20.2207 13.2373 20.0674C12.9443 20.512 12.6753 20.9846 12.4346 21.4824C11.74 21.0662 11.0564 20.5717 10.4004 20C10.7887 19.6616 11.1885 19.3525 11.5928 19.0684C11.2955 18.4679 11.0353 17.8358 10.8174 17.1768C10.1874 17.5933 9.57241 18.0632 8.98242 18.5859C7.76712 17.2043 6.8941 15.699 6.37793 14.2236C7.72278 13.5774 9.30916 13.15 11.0352 13.0332C11.1134 14.2649 11.3305 15.4478 11.668 16.5518C11.8894 17.2765 12.1646 17.9663 12.4844 18.6143C12.7125 19.0762 12.9639 19.5162 13.2373 19.9316C16.8695 19.7783 19.7798 16.8687 19.9326 13.2363C19.488 12.9433 19.0155 12.6743 18.5176 12.4336C18.9337 11.7393 19.4285 11.0562 20 10.4004C20.3383 10.7885 20.6476 11.1879 20.9316 11.5918C21.5321 11.2946 22.1642 11.0343 22.8232 10.8164C22.4065 10.1863 21.936 9.57147 21.4131 8.98145C22.7952 7.76576 24.3015 6.89304 25.7773 6.37695ZM8.98145 21.4131C9.73265 22.0788 10.5236 22.6596 11.3359 23.1523C12.045 23.5826 12.77 23.9462 13.5 24.2383V24.3105C13.5059 24.2895 13.5116 24.2681 13.5176 24.2471C14.081 24.4713 14.6477 24.6506 15.2109 24.7891C15.3494 25.3523 15.5297 25.919 15.7539 26.4824C14.9036 26.7261 13.9932 26.8923 13.0391 26.9619C13.0827 26.364 13.1648 25.7832 13.2793 25.2236C12.6536 24.9814 12.0328 24.6917 11.4229 24.3564C11.2249 25.1924 11.0924 26.066 11.0352 26.9658C9.30948 26.849 7.72359 26.4224 6.37891 25.7764C6.89503 24.301 7.7661 22.7947 8.98145 21.4131ZM35.3613 15.2822C37.0558 16.5766 37.9999 18.2483 38 20C37.9999 21.7512 37.056 23.4225 35.3623 24.7168C34.731 23.0808 33.7435 21.464 32.4355 19.999C33.7431 18.5342 34.7303 16.918 35.3613 15.2822ZM4.63867 15.2832C5.26975 16.9189 6.25603 18.5353 7.56348 20C6.25593 21.4647 5.26888 23.0811 4.6377 24.7168C2.94403 23.4225 2.00011 21.7512 2 20C2.00011 18.2485 2.94453 16.5776 4.63867 15.2832ZM28.9658 13.0332C30.6914 13.1501 32.2775 13.5776 33.6221 14.2236C33.1057 15.6988 32.2329 17.2044 31.0176 18.5859C30.2719 17.9252 29.4876 17.3469 28.6816 16.8564C27.9673 16.4218 27.2357 16.056 26.5 15.7617V15.6895C26.494 15.7108 26.4885 15.7326 26.4824 15.7539C25.9193 15.5298 25.353 15.3494 24.79 15.2109C24.6516 14.6476 24.4704 14.0811 24.2461 13.5176C25.0967 13.2738 26.0075 13.1077 26.9619 13.0381C26.9183 13.6356 26.8372 14.2162 26.7227 14.7754C27.3484 15.0177 27.9691 15.3082 28.5791 15.6436C28.7771 14.8074 28.9086 13.9332 28.9658 13.0332ZM14.2236 6.37793C15.6987 6.89421 17.2045 7.76625 18.5859 8.98145C17.9251 9.7272 17.3478 10.5122 16.8574 11.3184C16.4227 12.0328 16.0561 12.7642 15.7617 13.5H15.6924C15.7125 13.5057 15.7329 13.5109 15.7529 13.5166C15.5285 14.0803 15.3485 14.6474 15.21 15.2109C14.6472 15.3493 14.0815 15.5299 13.5186 15.7539C13.2748 14.9033 13.1087 13.9925 13.0391 13.0381C13.6369 13.0817 14.2178 13.1618 14.7773 13.2764C15.0196 12.651 15.3094 12.0305 15.6445 11.4209C14.8083 11.2231 13.9342 11.0924 13.0342 11.0352C13.1511 9.30925 13.5775 7.72271 14.2236 6.37793ZM27.7578 5.89453C29.8069 5.6199 31.5645 6.10941 32.7275 7.27246C33.8902 8.43544 34.3799 10.1926 34.1055 12.2412C32.5718 11.564 30.8249 11.1418 28.9697 11.0312C28.8592 9.17566 28.4352 7.42847 27.7578 5.89453ZM7.27148 7.27246C8.43485 6.10924 10.1935 5.61945 12.2432 5.89453C11.5657 7.42854 11.1418 9.17554 11.0312 11.0312C9.17609 11.1417 7.4292 11.5641 5.89551 12.2412C5.62111 10.1927 6.10893 8.43539 7.27148 7.27246ZM20 2C21.7513 2 23.4224 2.94396 24.7168 4.6377C23.081 5.26874 21.4649 6.25592 20 7.56348C18.5354 6.25608 16.9188 5.26976 15.2832 4.63867C16.5776 2.94455 18.2485 2 20 2Z" clip-rule="evenodd" fill-rule="evenodd"></path></g>
        <g style="opacity: 1;" id="logotype" transform="translate(46, 0.5)"><path fill="#2C4C" d="M24.51 34L8.31 34L8.31 8.54L13.52 8.54L13.52 29.68L24.51 29.68L24.51 34ZM34.25 34.38L34.25 34.38Q31.38 34.38 29.27 33.14Q27.17 31.90 26.04 29.68Q24.90 27.47 24.90 24.53L24.90 24.53Q24.90 21.56 26.04 19.35Q27.17 17.13 29.27 15.89Q31.38 14.65 34.25 14.65L34.25 14.65Q37.14 14.65 39.23 15.89Q41.32 17.13 42.46 19.35Q43.60 21.56 43.60 24.53L43.60 24.53Q43.60 27.47 42.46 29.68Q41.32 31.90 39.23 33.14Q37.14 34.38 34.25 34.38ZM34.25 30.34L34.25 30.34Q35.61 30.34 36.54 29.58Q37.46 28.82 37.92 27.50Q38.38 26.17 38.38 24.52L38.38 24.52Q38.38 22.82 37.92 21.51Q37.46 20.19 36.54 19.44Q35.61 18.69 34.25 18.69L34.25 18.69Q32.88 18.69 31.97 19.44Q31.05 20.19 30.59 21.51Q30.13 22.82 30.13 24.52L30.13 24.52Q30.13 26.17 30.59 27.50Q31.05 28.82 31.97 29.58Q32.88 30.34 34.25 30.34ZM53.37 41.55L53.37 41.55Q50.99 41.55 49.22 40.95Q47.44 40.34 46.33 39.28Q45.22 38.22 44.79 36.87L44.79 36.87L49.20 35.64Q49.44 36.17 49.94 36.67Q50.45 37.18 51.28 37.50Q52.12 37.83 53.35 37.83L53.35 37.83Q55.32 37.83 56.44 36.93Q57.56 36.03 57.56 34.14L57.56 34.14L57.56 30.62L57.16 30.62Q56.82 31.39 56.17 32.10Q55.52 32.82 54.47 33.27Q53.42 33.73 51.87 33.73L51.87 33.73Q49.71 33.73 47.95 32.72Q46.19 31.71 45.14 29.64Q44.09 27.57 44.09 24.41L44.09 24.41Q44.09 21.18 45.16 19.01Q46.23 16.84 47.99 15.75Q49.76 14.65 51.88 14.65L51.88 14.65Q53.49 14.65 54.58 15.19Q55.68 15.73 56.35 16.54Q57.03 17.35 57.37 18.11L57.37 18.11L57.59 18.11L57.59 14.89L62.63 14.89L62.63 33.85Q62.63 36.43 61.44 38.14Q60.26 39.86 58.17 40.71Q56.09 41.55 53.37 41.55ZM53.47 29.83L53.47 29.83Q54.79 29.83 55.70 29.18Q56.62 28.53 57.09 27.31Q57.57 26.09 57.57 24.38L57.57 24.38Q57.57 22.69 57.09 21.42Q56.62 20.16 55.70 19.46Q54.79 18.76 53.47 18.76L53.47 18.76Q52.12 18.76 51.21 19.48Q50.29 20.21 49.82 21.47Q49.35 22.74 49.35 24.38L49.35 24.38Q49.35 26.05 49.82 27.28Q50.29 28.50 51.22 29.16Q52.14 29.83 53.47 29.83ZM73.28 34.38L73.28 34.38Q70.41 34.38 68.30 33.14Q66.20 31.90 65.06 29.68Q63.93 27.47 63.93 24.53L63.93 24.53Q63.93 21.56 65.06 19.35Q66.20 17.13 68.30 15.89Q70.41 14.65 73.28 14.65L73.28 14.65Q76.16 14.65 78.26 15.89Q80.35 17.13 81.49 19.35Q82.62 21.56 82.62 24.53L82.62 24.53Q82.62 27.47 81.49 29.68Q80.35 31.90 78.26 33.14Q76.16 34.38 73.28 34.38ZM73.28 30.34L73.28 30.34Q74.64 30.34 75.57 29.58Q76.49 28.82 76.95 27.50Q77.41 26.17 77.41 24.52L77.41 24.52Q77.41 22.82 76.95 21.51Q76.49 20.19 75.57 19.44Q74.64 18.69 73.28 18.69L73.28 18.69Q71.91 18.69 71.00 19.44Q70.08 20.19 69.62 21.51Q69.16 22.82 69.16 24.52L69.16 24.52Q69.16 26.17 69.62 27.50Q70.08 28.82 71.00 29.58Q71.91 30.34 73.28 30.34ZM89.05 34L83.92 34L83.92 14.89L89.05 14.89L89.05 34ZM86.48 12.40L86.48 12.40Q85.32 12.40 84.50 11.63Q83.68 10.86 83.68 9.77L83.68 9.77Q83.68 8.67 84.50 7.90Q85.32 7.13 86.48 7.13L86.48 7.13Q87.65 7.13 88.48 7.90Q89.30 8.66 89.30 9.77L89.30 9.77Q89.30 10.86 88.48 11.63Q87.65 12.40 86.48 12.40ZM96.26 41.14L91.13 41.14L91.13 14.89L96.17 14.89L96.17 18.11L96.41 18.11Q96.77 17.35 97.43 16.55Q98.09 15.75 99.16 15.20Q100.24 14.65 101.86 14.65L101.86 14.65Q103.98 14.65 105.74 15.75Q107.50 16.84 108.55 19.03Q109.61 21.22 109.61 24.48L109.61 24.48Q109.61 27.66 108.58 29.86Q107.55 32.05 105.79 33.19Q104.03 34.32 101.83 34.32L101.83 34.32Q100.27 34.32 99.20 33.79Q98.12 33.27 97.45 32.49Q96.77 31.71 96.41 30.94L96.41 30.94L96.26 30.94L96.26 41.14ZM100.26 30.21L100.26 30.21Q101.59 30.21 102.50 29.47Q103.42 28.74 103.89 27.44Q104.36 26.14 104.36 24.46L104.36 24.46Q104.36 22.79 103.89 21.51Q103.42 20.23 102.51 19.49Q101.61 18.76 100.26 18.76L100.26 18.76Q98.94 18.76 98.02 19.47Q97.10 20.17 96.62 21.45Q96.14 22.72 96.14 24.46L96.14 24.46Q96.14 26.19 96.63 27.48Q97.11 28.77 98.04 29.49Q98.96 30.21 100.26 30.21ZM118.51 34.38L118.51 34.38Q116.20 34.38 114.42 33.72Q112.65 33.06 111.52 31.80Q110.39 30.55 110.06 28.77L110.06 28.77L114.83 27.95Q115.21 29.28 116.15 29.95Q117.09 30.62 118.66 30.62L118.66 30.62Q120.11 30.62 120.97 30.06Q121.82 29.51 121.82 28.65L121.82 28.65Q121.82 27.90 121.22 27.42Q120.61 26.94 119.36 26.69L119.36 26.69L116.06 26.00Q113.29 25.44 111.93 24.08Q110.56 22.72 110.56 20.58L110.56 20.58Q110.56 18.74 111.57 17.41Q112.58 16.09 114.37 15.37Q116.17 14.65 118.59 14.65L118.59 14.65Q120.85 14.65 122.51 15.28Q124.16 15.90 125.19 17.05Q126.21 18.19 126.56 19.75L126.56 19.75L122.01 20.55Q121.72 19.58 120.89 18.95Q120.06 18.33 118.66 18.33L118.66 18.33Q117.40 18.33 116.54 18.86Q115.69 19.39 115.69 20.26L115.69 20.26Q115.69 20.99 116.24 21.49Q116.80 21.99 118.15 22.26L118.15 22.26L121.58 22.94Q124.35 23.51 125.70 24.78Q127.05 26.05 127.05 28.10L127.05 28.10Q127.05 29.98 125.96 31.39Q124.86 32.80 122.94 33.59Q121.02 34.38 118.51 34.38ZM134.83 34.24L134.83 34.24Q132.84 34.24 131.36 33.38Q129.87 32.51 129.06 30.90Q128.25 29.28 128.25 27.04L128.25 27.04L128.25 14.89L133.37 14.89L133.37 26.16Q133.37 27.93 134.30 28.94Q135.22 29.95 136.83 29.95L136.83 29.95Q137.92 29.95 138.76 29.48Q139.59 29.01 140.06 28.11Q140.53 27.22 140.53 25.95L140.53 25.95L140.53 14.89L145.66 14.89L145.66 34L140.82 34L140.76 29.23L141.05 29.23Q140.29 31.64 138.75 32.94Q137.20 34.24 134.83 34.24ZM152.89 34L147.76 34L147.76 14.89L152.51 14.89L152.77 19.64L152.39 19.64Q152.84 17.88 153.70 16.77Q154.56 15.66 155.72 15.13Q156.89 14.60 158.17 14.60L158.17 14.60Q160.24 14.60 161.50 15.91Q162.77 17.22 163.36 19.95L163.36 19.95L162.77 19.95Q163.19 18.12 164.16 16.94Q165.12 15.75 166.45 15.18Q167.77 14.60 169.23 14.60L169.23 14.60Q170.99 14.60 172.36 15.37Q173.74 16.14 174.53 17.59Q175.33 19.03 175.33 21.11L175.33 21.11L175.33 34L170.20 34L170.20 22.09Q170.20 20.46 169.32 19.68Q168.44 18.89 167.16 18.89L167.16 18.89Q166.20 18.89 165.49 19.31Q164.78 19.73 164.40 20.48Q164.01 21.23 164.01 22.24L164.01 22.24L164.01 34L159.06 34L159.06 21.95Q159.06 20.55 158.23 19.72Q157.40 18.89 156.08 18.89L156.08 18.89Q155.18 18.89 154.45 19.30Q153.73 19.71 153.31 20.51Q152.89 21.30 152.89 22.45L152.89 22.45L152.89 34Z"></path></g>
        
      </svg>