<svg width="34" height="34" viewBox="0 0 34 34" fill="none" xmlns="http://www.w3.org/2000/svg">
<rect width="34" height="34" rx="17" fill="white"/>
<g clip-path="url(#clip0_0_2913)">
<path d="M12.6328 23.9999V13.8794H9.20251V23.9999H12.6328ZM10.9181 12.4968C12.1143 12.4968 12.8589 11.7197 12.8589 10.7485C12.8366 9.75544 12.1144 8.99988 10.9408 8.99988C9.76743 8.99988 9.00012 9.75546 9.00012 10.7485C9.00012 11.7197 9.74452 12.4968 10.8957 12.4968H10.918H10.9181ZM14.5315 23.9999H17.9618V18.3481C17.9618 18.0456 17.9841 17.7435 18.0746 17.5273C18.3226 16.9229 18.8871 16.297 19.8346 16.297C21.0759 16.297 21.5725 17.2251 21.5725 18.5856V23.9998H25.0026V18.1968C25.0026 15.0882 23.3103 13.6418 21.0533 13.6418C19.2028 13.6418 18.3903 14.6561 17.939 15.347H17.9619V13.8792H14.5315C14.5766 14.8288 14.5315 23.9997 14.5315 23.9997L14.5315 23.9999Z" fill="#192031"/>
</g>
<defs>
<clipPath id="clip0_0_2913">
<rect width="16" height="15" fill="white" transform="translate(9.00012 9)"/>
</clipPath>
</defs>
</svg>
